<svg xmlns="http://www.w3.org/2000/svg" width="171" height="67" fill="none"><rect width="169" height="65" x="1" y="1" stroke="#fff" stroke-width="2" rx="32.5"/><path fill="#fff" d="M68.372 25.128c-.346 0-.66-.065-.94-.195a1.615 1.615 0 0 1-.672-.572c-.166-.251-.249-.554-.249-.91 0-.312.062-.565.185-.76.123-.196.288-.35.494-.46.206-.112.433-.195.681-.25a8.57 8.57 0 0 1 .757-.134c.331-.043.6-.075.806-.096.208-.024.36-.063.454-.117.098-.055.146-.15.146-.285v-.028c0-.35-.096-.623-.288-.817-.189-.194-.477-.29-.862-.29-.4 0-.714.087-.942.262a1.553 1.553 0 0 0-.479.56l-.795-.283c.142-.332.331-.59.568-.774.239-.187.5-.317.781-.39.284-.077.564-.115.838-.115.175 0 .376.022.604.064.23.04.45.125.664.253.215.127.394.32.536.578.142.258.213.604.213 1.037V25h-.838v-.739h-.043a1.475 1.475 0 0 1-.284.38 1.64 1.64 0 0 1-.529.345c-.22.095-.489.142-.806.142Zm.128-.753c.331 0 .61-.065.838-.195a1.33 1.33 0 0 0 .696-1.154v-.767c-.035.042-.114.081-.234.117a3.957 3.957 0 0 1-.412.088 18.409 18.409 0 0 1-.803.107 3.203 3.203 0 0 0-.61.138 1.053 1.053 0 0 0-.455.281c-.114.123-.17.291-.17.504 0 .291.107.512.323.66.217.148.493.221.827.221Zm8.167-4.83L74.65 25h-.853l-2.017-5.454h.91l1.505 4.346h.057l1.506-4.346h.909Zm2.545 5.583c-.346 0-.66-.065-.941-.195a1.614 1.614 0 0 1-.671-.572c-.166-.251-.249-.554-.249-.91 0-.312.062-.565.185-.76a1.29 1.29 0 0 1 .493-.46 2.6 2.6 0 0 1 .682-.25c.251-.056.503-.101.757-.134.331-.043.6-.075.806-.096.208-.024.36-.063.454-.117.097-.055.146-.15.146-.285v-.028c0-.35-.096-.623-.288-.817-.19-.194-.477-.29-.863-.29-.4 0-.713.087-.94.262a1.553 1.553 0 0 0-.48.56l-.796-.283a1.91 1.91 0 0 1 .569-.774c.239-.187.5-.317.78-.39.285-.077.564-.115.839-.115.175 0 .376.022.604.064.23.04.45.125.664.253.215.127.394.32.536.578.142.258.213.604.213 1.037V25h-.838v-.739h-.043a1.475 1.475 0 0 1-.284.38 1.64 1.64 0 0 1-.529.345c-.22.095-.489.142-.806.142Zm.128-.753c.331 0 .61-.065.838-.195a1.33 1.33 0 0 0 .696-1.154v-.767c-.036.042-.114.081-.234.117a3.954 3.954 0 0 1-.412.088 18.409 18.409 0 0 1-.803.107 3.203 3.203 0 0 0-.61.138 1.053 1.053 0 0 0-.455.281c-.114.123-.17.291-.17.504 0 .291.107.512.322.66.218.148.494.221.828.221Zm3.902.625v-5.454h.838V25h-.838Zm.426-6.364a.596.596 0 0 1-.423-.166.536.536 0 0 1-.174-.402c0-.156.058-.29.174-.401a.596.596 0 0 1 .423-.167c.163 0 .303.056.419.167a.531.531 0 0 1 .177.401c0 .156-.059.29-.177.401a.584.584 0 0 1-.42.167Zm2.785-.909V25h-.838v-7.273h.838Zm3.14 7.4c-.346 0-.66-.064-.941-.194a1.615 1.615 0 0 1-.671-.572c-.166-.251-.249-.554-.249-.91 0-.312.062-.565.185-.76a1.29 1.29 0 0 1 .493-.46 2.6 2.6 0 0 1 .682-.25c.251-.056.503-.101.757-.134.331-.043.6-.075.806-.096.208-.024.36-.063.454-.117.097-.055.146-.15.146-.285v-.028c0-.35-.096-.623-.288-.817-.19-.194-.477-.29-.863-.29-.4 0-.714.087-.94.262a1.553 1.553 0 0 0-.48.56l-.796-.283a1.9 1.9 0 0 1 .569-.774c.239-.187.499-.317.78-.39.285-.077.564-.115.839-.115.175 0 .376.022.604.064.23.04.45.125.664.253.215.127.394.32.536.578.142.258.213.604.213 1.037V25h-.838v-.739h-.043a1.475 1.475 0 0 1-.284.38 1.64 1.64 0 0 1-.529.345c-.22.095-.489.142-.806.142Zm.128-.752c.331 0 .61-.065.838-.195a1.33 1.33 0 0 0 .696-1.154v-.767c-.036.042-.114.081-.235.117a3.957 3.957 0 0 1-.411.088 18.409 18.409 0 0 1-.803.107 3.203 3.203 0 0 0-.61.138 1.053 1.053 0 0 0-.455.281c-.114.123-.17.291-.17.504 0 .291.107.512.322.66.218.148.494.221.828.221Zm4.015.625v-7.273h.838v2.685h.071a7.52 7.52 0 0 1 .256-.362 1.5 1.5 0 0 1 .476-.398c.208-.118.49-.178.845-.178.46 0 .864.115 1.214.345.35.23.624.555.82.977.197.42.296.918.296 1.49 0 .579-.099 1.08-.295 1.503a2.325 2.325 0 0 1-.817.98c-.348.23-.75.345-1.204.345-.35 0-.63-.058-.842-.174a1.56 1.56 0 0 1-.486-.402 5.407 5.407 0 0 1-.263-.376h-.1V25h-.809Zm.824-2.727c0 .412.06.775.181 1.09.12.312.297.558.53.735.231.175.515.263.852.263.35 0 .642-.093.877-.277.236-.187.414-.438.532-.753.121-.317.181-.67.181-1.058 0-.384-.059-.73-.177-1.037a1.602 1.602 0 0 0-.53-.735c-.234-.183-.528-.274-.883-.274-.341 0-.628.087-.86.26-.232.17-.407.41-.525.717a2.948 2.948 0 0 0-.178 1.069Zm6.112-4.546V25h-.838v-7.273h.838Zm3.821 7.387c-.525 0-.978-.116-1.36-.348a2.341 2.341 0 0 1-.877-.98c-.203-.422-.305-.912-.305-1.47 0-.56.102-1.052.305-1.478.206-.428.493-.762.86-1.001.369-.242.8-.363 1.292-.363.284 0 .565.048.842.142.277.095.529.25.756.462.227.21.409.49.544.838.134.348.202.777.202 1.286v.355h-4.205v-.725h3.353a1.79 1.79 0 0 0-.185-.823 1.398 1.398 0 0 0-.518-.572 1.455 1.455 0 0 0-.789-.21 1.5 1.5 0 0 0-.866.249 1.63 1.63 0 0 0-.558.64 1.88 1.88 0 0 0-.195.844v.483c0 .412.071.761.213 1.048.144.284.344.5.6.65.256.146.553.22.891.22.221 0 .419-.031.597-.093.18-.064.335-.158.465-.284a1.29 1.29 0 0 0 .302-.476l.81.228a1.807 1.807 0 0 1-.43.724c-.201.206-.45.367-.746.483-.296.114-.628.17-.998.17Zm8.562 0c-.492 0-.924-.118-1.296-.352a2.388 2.388 0 0 1-.866-.984c-.206-.421-.309-.913-.309-1.477 0-.568.103-1.064.309-1.488.208-.424.497-.753.866-.987a2.383 2.383 0 0 1 1.296-.352c.493 0 .924.118 1.293.352.372.234.66.563.866.987.209.424.313.92.313 1.488 0 .564-.104 1.056-.313 1.477-.206.422-.494.75-.866.984-.369.234-.8.352-1.293.352Zm0-.753c.374 0 .682-.096.924-.288a1.7 1.7 0 0 0 .536-.756c.116-.313.174-.651.174-1.016 0-.364-.058-.704-.174-1.019a1.72 1.72 0 0 0-.536-.764c-.242-.194-.55-.29-.924-.29s-.682.096-.923.29c-.242.195-.42.45-.536.764a2.925 2.925 0 0 0-.174 1.02c0 .364.058.702.174 1.015.116.312.294.564.536.756.241.192.549.288.923.288Zm4.589-2.642V25h-.838v-5.454h.81v.852h.071c.128-.277.322-.5.582-.668.261-.17.597-.256 1.009-.256.369 0 .692.076.969.228.277.149.493.376.646.681.154.304.231.687.231 1.151V25h-.838v-3.41c0-.428-.111-.761-.334-1-.222-.242-.528-.363-.916-.363-.267 0-.506.058-.717.174a1.25 1.25 0 0 0-.494.508c-.12.223-.181.492-.181.81Zm10.196-2.174v.71h-2.826v-.71h2.826Zm-2.002-1.306h.838v5.198c0 .237.034.415.103.533a.535.535 0 0 0 .269.235c.112.037.229.056.352.056.092 0 .168-.004.227-.014l.142-.028.171.753a1.707 1.707 0 0 1-.238.063 1.752 1.752 0 0 1-.387.036c-.237 0-.469-.05-.696-.153a1.38 1.38 0 0 1-.561-.465c-.147-.208-.22-.471-.22-.788v-5.426Zm4.218 3.48V25h-.838v-7.273h.838v2.67h.071a1.54 1.54 0 0 1 .576-.67c.258-.169.601-.253 1.029-.253.372 0 .698.075.977.224.279.147.496.373.65.678.156.303.234.69.234 1.158V25h-.838v-3.41c0-.432-.112-.767-.337-1.004-.223-.24-.532-.359-.927-.359-.275 0-.521.058-.739.174a1.27 1.27 0 0 0-.511.508 1.652 1.652 0 0 0-.185.81Zm7.357 3.395c-.525 0-.979-.116-1.36-.348a2.335 2.335 0 0 1-.877-.98c-.203-.422-.305-.912-.305-1.47 0-.56.102-1.052.305-1.478.206-.428.493-.762.86-1.001.369-.242.8-.363 1.292-.363.284 0 .565.048.842.142.277.095.529.25.756.462.227.21.409.49.543.838.135.348.203.777.203 1.286v.355h-4.205v-.725h3.353a1.79 1.79 0 0 0-.185-.823 1.394 1.394 0 0 0-.519-.572 1.45 1.45 0 0 0-.788-.21 1.5 1.5 0 0 0-.866.249 1.63 1.63 0 0 0-.558.64 1.88 1.88 0 0 0-.195.844v.483c0 .412.071.761.213 1.048.144.284.344.5.6.65.256.146.553.22.891.22.221 0 .419-.031.597-.093.18-.064.335-.158.465-.284a1.29 1.29 0 0 0 .302-.476l.81.228a1.807 1.807 0 0 1-.43.724c-.201.206-.45.367-.746.483-.296.114-.628.17-.998.17ZM68.642 44h-2.25l4.097-11.636h2.602L77.193 44h-2.25l-3.108-9.25h-.09L68.641 44Zm.074-4.563h6.136v1.694h-6.136v-1.694Zm9.919 7.836v-12h2.023v1.443h.119c.106-.212.256-.438.449-.676a2.38 2.38 0 0 1 .784-.62c.33-.174.75-.26 1.261-.26.674 0 1.282.171 1.824.516.546.341.977.847 1.296 1.517.322.667.483 1.485.483 2.455 0 .958-.158 1.772-.472 2.443-.314.67-.742 1.182-1.284 1.534a3.302 3.302 0 0 1-1.841.528c-.5 0-.915-.083-1.244-.25a2.531 2.531 0 0 1-.796-.602 3.894 3.894 0 0 1-.46-.676h-.085v4.648h-2.057Zm2.017-7.637c0 .565.08 1.06.239 1.483.162.425.395.756.698.995.307.235.678.352 1.114.352.455 0 .835-.121 1.142-.364.307-.246.538-.581.693-1.005.16-.428.239-.915.239-1.46 0-.542-.078-1.023-.233-1.444-.155-.42-.386-.75-.693-.988-.307-.24-.69-.358-1.148-.358-.44 0-.812.115-1.12.346-.306.231-.539.555-.698.972-.155.416-.233.907-.233 1.471Zm7.983 7.637v-12h2.023v1.443h.119c.106-.212.256-.438.449-.676a2.38 2.38 0 0 1 .784-.62c.33-.174.75-.26 1.261-.26.674 0 1.282.171 1.824.516.546.341.977.847 1.296 1.517.322.667.483 1.485.483 2.455 0 .958-.158 1.772-.472 2.443-.314.67-.742 1.182-1.284 1.534a3.302 3.302 0 0 1-1.841.528c-.5 0-.915-.083-1.244-.25a2.531 2.531 0 0 1-.796-.602 3.894 3.894 0 0 1-.46-.676h-.085v4.648h-2.057Zm2.017-7.637c0 .565.08 1.06.239 1.483.162.425.395.756.698.995.307.235.678.352 1.114.352.455 0 .835-.121 1.142-.364.307-.246.538-.581.693-1.005.16-.428.239-.915.239-1.46 0-.542-.078-1.023-.233-1.444-.155-.42-.386-.75-.693-.988-.307-.24-.69-.358-1.148-.358-.44 0-.812.115-1.12.346-.306.231-.539.555-.698.972-.155.416-.233.907-.233 1.471Zm18.366-4.074c-.053-.496-.276-.882-.67-1.159-.39-.276-.898-.414-1.523-.414-.439 0-.816.066-1.13.199-.315.132-.555.312-.722.54a1.312 1.312 0 0 0-.256.778c0 .242.055.452.165.63.114.178.267.33.46.455.194.121.408.223.642.307.235.083.472.153.711.21l1.091.273c.439.102.861.24 1.267.414.409.175.774.394 1.096.66.326.265.583.585.773.96.189.375.284.814.284 1.318 0 .682-.174 1.282-.523 1.801-.348.515-.852.919-1.511 1.21-.655.288-1.449.432-2.381.432-.905 0-1.691-.14-2.358-.42-.663-.28-1.182-.69-1.557-1.228-.371-.538-.572-1.193-.602-1.965h2.074c.03.405.155.742.375 1.01.22.27.506.47.858.603a3.39 3.39 0 0 0 1.193.199c.458 0 .86-.068 1.205-.205.348-.14.621-.333.818-.58a1.4 1.4 0 0 0 .301-.874c-.004-.303-.093-.553-.267-.75-.174-.2-.419-.367-.733-.5a7.057 7.057 0 0 0-1.091-.364l-1.324-.34c-.958-.247-1.716-.62-2.272-1.12-.554-.504-.83-1.172-.83-2.006 0-.685.186-1.286.557-1.8.375-.516.884-.916 1.528-1.2.644-.288 1.373-.431 2.188-.431.825 0 1.549.144 2.17.431.625.284 1.116.68 1.472 1.188a3.03 3.03 0 0 1 .551 1.739h-2.029Zm8.334-.29v1.592h-5.017v-1.591h5.017Zm-3.778-2.09h2.057v8.193c0 .276.041.489.125.636a.67.67 0 0 0 .341.296c.14.053.295.08.465.08.129 0 .247-.01.353-.029.11-.019.193-.036.25-.051l.346 1.608c-.109.038-.267.08-.471.125a3.871 3.871 0 0 1-.739.08 3.355 3.355 0 0 1-1.392-.234 2.168 2.168 0 0 1-.983-.806c-.238-.364-.356-.819-.352-1.364v-8.534Zm9.212 10.988c-.853 0-1.591-.187-2.216-.562a3.823 3.823 0 0 1-1.455-1.574c-.341-.674-.511-1.462-.511-2.364 0-.901.17-1.69.511-2.369a3.815 3.815 0 0 1 1.455-1.58c.625-.374 1.363-.562 2.216-.562.852 0 1.59.188 2.215.563a3.775 3.775 0 0 1 1.449 1.58c.345.677.517 1.467.517 2.368 0 .902-.172 1.69-.517 2.364a3.783 3.783 0 0 1-1.449 1.574c-.625.375-1.363.563-2.215.563Zm.011-1.647c.462 0 .848-.127 1.159-.381.311-.258.542-.602.693-1.034.155-.432.233-.913.233-1.443 0-.534-.078-1.017-.233-1.45-.151-.435-.382-.781-.693-1.039-.311-.257-.697-.386-1.159-.386-.474 0-.868.129-1.182.386-.311.258-.544.604-.699 1.04a4.369 4.369 0 0 0-.227 1.449c0 .53.076 1.011.227 1.443.155.432.388.777.699 1.034.314.254.708.38 1.182.38ZM128.713 44v-8.727h1.994v1.454h.091c.159-.503.432-.892.818-1.164a2.256 2.256 0 0 1 1.336-.415c.113 0 .24.005.38.017.144.007.264.02.358.04v1.892a2.162 2.162 0 0 0-.414-.08 3.828 3.828 0 0 0-.54-.04c-.375 0-.712.082-1.012.245-.295.159-.528.38-.698.664a1.868 1.868 0 0 0-.256.983V44h-2.057Zm9.848.17c-.875 0-1.631-.181-2.267-.545a3.692 3.692 0 0 1-1.46-1.557c-.341-.674-.512-1.468-.512-2.38 0-.898.171-1.686.512-2.364a3.87 3.87 0 0 1 1.443-1.591c.617-.383 1.343-.574 2.176-.574a4.41 4.41 0 0 1 1.523.261c.481.17.905.436 1.273.796.371.36.662.818.875 1.375.212.553.318 1.212.318 1.977v.63h-7.154v-1.386h5.182a2.211 2.211 0 0 0-.256-1.05 1.854 1.854 0 0 0-.698-.734 1.968 1.968 0 0 0-1.034-.267c-.421 0-.79.103-1.108.307-.319.2-.567.466-.745.796a2.295 2.295 0 0 0-.267 1.074v1.21c0 .507.093.943.279 1.306.185.36.445.637.778.83.333.19.724.284 1.17.284.3 0 .571-.041.813-.125.242-.087.453-.214.631-.38.178-.167.312-.374.403-.62l1.921.216c-.122.508-.353.95-.694 1.33a3.38 3.38 0 0 1-1.295.875c-.527.204-1.129.306-1.807.306Zm-94.091-4.2c-1.06 1.03-2.22.867-3.336.38-1.18-.5-2.264-.52-3.51 0-1.56.67-2.383.476-3.315-.38-5.286-5.45-4.506-13.747 1.495-14.05 1.463.075 2.481.8 3.337.866 1.278-.26 2.502-1.008 3.867-.91 1.636.13 2.871.78 3.684 1.95-3.38 2.026-2.579 6.478.52 7.724-.618 1.625-1.42 3.24-2.752 4.43l.01-.01Zm-5.438-14.116c-.162-2.416 1.799-4.409 4.052-4.604.314 2.795-2.535 4.875-4.052 4.604Z"/></svg>