<svg xmlns="http://www.w3.org/2000/svg" width="171" height="67" fill="none"><rect width="169" height="65" x="1" y="1" stroke="#fff" stroke-width="2" rx="32.5"/><path fill="#fff" d="m25.698 22.436 11.289 11.07L25.782 44.68a2.74 2.74 0 0 1-.421-.791 3.164 3.164 0 0 1 0-.975V23.899a2.62 2.62 0 0 1 .335-1.463m16.154 6.242-3.685 3.65-11.155-10.97a2.34 2.34 0 0 1 1.128-.1 6.29 6.29 0 0 1 1.681.74l10.096 5.586c.656.353 1.296.724 1.935 1.094Zm-3.684 6.023 3.667 3.602-2.658 1.48-8.11 4.508c-.672.37-1.346.724-2.002 1.129a2.321 2.321 0 0 1-1.902.252l11.005-10.97Zm9.507-1.194a2.473 2.473 0 0 1-1.279 2.221l-3.03 1.682-3.987-3.903 4.004-3.971c1.027.572 2.037 1.144 3.045 1.683a2.44 2.44 0 0 1 1.247 2.288ZM71.852 20a2.567 2.567 0 0 0-.309-.643 1.982 1.982 0 0 0-.45-.49 1.893 1.893 0 0 0-.59-.309 2.35 2.35 0 0 0-.725-.106c-.43 0-.822.111-1.175.333-.353.223-.633.55-.842.984-.208.433-.312.965-.312 1.595s.105 1.16.316 1.594c.21.433.496.761.856.984.36.222.764.334 1.214.334.417 0 .784-.09 1.101-.267.32-.18.568-.433.746-.76.18-.329.27-.716.27-1.16l.27.056h-2.188v-.781h2.77v.78c0 .6-.128 1.12-.383 1.563a2.65 2.65 0 0 1-1.052 1.03c-.445.242-.956.362-1.534.362-.644 0-1.21-.151-1.697-.454-.486-.303-.864-.734-1.137-1.293-.27-.558-.404-1.221-.404-1.988 0-.576.077-1.093.23-1.552.157-.462.377-.855.66-1.18a2.9 2.9 0 0 1 1.01-.745 3.11 3.11 0 0 1 1.281-.26c.384 0 .741.059 1.073.175a2.88 2.88 0 0 1 1.548 1.236c.175.288.296.61.362.962h-.909Zm2.46 5v-7.273h4.39v.782h-3.509v2.457h3.281v.781h-3.281v2.472h3.565V25h-4.446Zm5.58-6.491v-.782h5.454v.782h-2.287V25h-.88v-6.491H79.89Zm10.506-.782V25h-.88v-7.273h.88Zm1.368.782v-.782h5.455v.782h-2.287V25h-.88v-6.491h-2.288Zm15.763 2.855c0 .767-.139 1.43-.416 1.988-.277.559-.657.99-1.14 1.293-.483.303-1.034.454-1.654.454-.621 0-1.172-.151-1.655-.454-.483-.303-.863-.734-1.14-1.293-.277-.558-.416-1.221-.416-1.988 0-.767.139-1.43.416-1.989.277-.559.657-.99 1.14-1.293.483-.303 1.034-.454 1.655-.454.62 0 1.171.151 1.654.454.483.303.863.734 1.14 1.293.277.559.416 1.222.416 1.989Zm-.853 0c0-.63-.105-1.162-.316-1.595-.208-.433-.491-.761-.848-.983a2.201 2.201 0 0 0-1.193-.334c-.441 0-.84.111-1.197.333-.355.223-.638.55-.849.984-.208.433-.312.965-.312 1.595s.104 1.16.312 1.594c.211.433.494.761.849.984.357.222.756.334 1.197.334.44 0 .838-.112 1.193-.334.357-.223.64-.55.848-.984.211-.433.316-.965.316-1.594Zm8.101-3.637V25h-.853l-3.963-5.71h-.071V25h-.88v-7.273h.852l3.977 5.725h.071v-5.725h.867ZM67.147 44V32.364h4.364c.894 0 1.644.166 2.25.5.61.333 1.07.791 1.381 1.375.314.58.472 1.238.472 1.977 0 .746-.158 1.409-.472 1.989a3.37 3.37 0 0 1-1.392 1.369c-.614.33-1.37.494-2.267.494h-2.892v-1.733h2.608c.523 0 .95-.09 1.284-.273a1.72 1.72 0 0 0 .739-.75c.163-.318.244-.683.244-1.096 0-.413-.081-.777-.244-1.091a1.66 1.66 0 0 0-.745-.733c-.333-.178-.763-.267-1.29-.267h-1.931V44h-2.108ZM79.41 32.364V44h-2.056V32.364h2.056Zm4.627 11.812a3.64 3.64 0 0 1-1.494-.295 2.436 2.436 0 0 1-1.046-.887c-.254-.39-.38-.87-.38-1.443 0-.492.09-.9.272-1.221.182-.322.43-.58.745-.773a3.755 3.755 0 0 1 1.062-.438 8.644 8.644 0 0 1 1.233-.221c.511-.053.926-.1 1.244-.142.319-.046.55-.114.694-.205.147-.095.221-.24.221-.437v-.034c0-.428-.127-.76-.38-.995-.254-.235-.62-.352-1.097-.352-.504 0-.904.11-1.2.33-.29.22-.488.479-.59.778l-1.92-.273c.151-.53.401-.973.75-1.33.348-.36.774-.628 1.278-.806a4.89 4.89 0 0 1 1.67-.273c.42 0 .84.05 1.256.148.417.098.797.261 1.142.488.345.224.621.529.83.915.212.387.318.87.318 1.45V44h-1.977v-1.199h-.069a2.51 2.51 0 0 1-.528.682 2.542 2.542 0 0 1-.847.506c-.337.125-.733.187-1.187.187Zm.534-1.511c.413 0 .77-.082 1.074-.245a1.8 1.8 0 0 0 .699-.659c.166-.272.25-.57.25-.892v-1.028a.967.967 0 0 1-.33.148 4.655 4.655 0 0 1-.511.119c-.19.034-.377.064-.563.09l-.483.069a3.59 3.59 0 0 0-.823.205 1.368 1.368 0 0 0-.574.397c-.14.167-.21.383-.21.648 0 .379.138.665.414.858.277.193.629.29 1.057.29Zm7.108 4.608c-.28 0-.54-.023-.778-.069a2.878 2.878 0 0 1-.563-.147l.477-1.602c.3.087.567.128.802.125a.982.982 0 0 0 .619-.222c.182-.14.335-.375.46-.705l.176-.471-3.165-8.91h2.182l2.012 6.592h.09l2.017-6.591h2.188l-3.494 9.784a3.92 3.92 0 0 1-.648 1.187 2.633 2.633 0 0 1-.989.762c-.386.178-.848.267-1.386.267Zm18.324-11.71c-.053-.497-.277-.883-.671-1.16-.39-.276-.897-.414-1.522-.414-.44 0-.817.066-1.131.199-.314.132-.555.312-.722.54a1.31 1.31 0 0 0-.255.778c0 .242.055.452.164.63.114.178.268.33.461.455.193.121.407.223.642.307.235.083.471.153.71.21l1.091.273c.439.102.862.24 1.267.414a4.47 4.47 0 0 1 1.097.66c.325.265.583.585.772.96.19.375.284.814.284 1.318 0 .682-.174 1.282-.522 1.801-.349.515-.853.919-1.512 1.21-.655.288-1.449.432-2.38.432-.906 0-1.692-.14-2.358-.42-.663-.28-1.182-.69-1.557-1.228-.371-.538-.572-1.193-.602-1.965h2.073c.031.405.156.742.375 1.01.22.27.506.47.858.603a3.4 3.4 0 0 0 1.194.199c.458 0 .859-.068 1.204-.205a1.95 1.95 0 0 0 .818-.58c.197-.25.298-.54.301-.874-.003-.303-.092-.553-.267-.75-.174-.2-.418-.367-.733-.5a7.02 7.02 0 0 0-1.091-.364l-1.323-.34c-.959-.247-1.716-.62-2.273-1.12-.553-.504-.83-1.172-.83-2.006 0-.685.186-1.286.557-1.8.375-.516.885-.916 1.529-1.2.644-.288 1.373-.431 2.187-.431.826 0 1.549.144 2.171.431.625.284 1.115.68 1.471 1.188a3.03 3.03 0 0 1 .551 1.739h-2.028Zm8.334-.29v1.59h-5.017v-1.59h5.017Zm-3.779-2.091h2.057v8.193c0 .276.042.489.125.636a.675.675 0 0 0 .341.296c.14.053.295.08.466.08.129 0 .246-.01.352-.029.11-.019.193-.036.25-.051l.347 1.608c-.11.038-.267.08-.472.125a3.87 3.87 0 0 1-.738.08 3.357 3.357 0 0 1-1.393-.234 2.165 2.165 0 0 1-.982-.806c-.239-.364-.357-.819-.353-1.364v-8.534Zm9.212 10.988c-.852 0-1.591-.187-2.216-.562a3.823 3.823 0 0 1-1.455-1.574c-.34-.674-.511-1.462-.511-2.364 0-.901.171-1.69.511-2.369a3.815 3.815 0 0 1 1.455-1.58c.625-.374 1.364-.562 2.216-.562.852 0 1.591.188 2.216.563a3.775 3.775 0 0 1 1.449 1.58c.344.677.517 1.467.517 2.368 0 .902-.173 1.69-.517 2.364a3.783 3.783 0 0 1-1.449 1.574c-.625.375-1.364.563-2.216.563Zm.011-1.647c.462 0 .849-.127 1.159-.381.311-.258.542-.602.694-1.034a4.25 4.25 0 0 0 .232-1.443c0-.534-.077-1.017-.232-1.45-.152-.435-.383-.781-.694-1.039-.31-.257-.697-.386-1.159-.386-.473 0-.867.129-1.182.386-.31.258-.543.604-.698 1.04a4.343 4.343 0 0 0-.228 1.449c0 .53.076 1.011.228 1.443.155.432.388.777.698 1.034.315.254.709.38 1.182.38ZM129.697 44v-8.727h1.995v1.454h.091c.159-.503.431-.892.818-1.164.39-.277.835-.415 1.335-.415.114 0 .241.005.381.017.144.007.263.02.358.04v1.892a2.176 2.176 0 0 0-.415-.08 3.828 3.828 0 0 0-.54-.04c-.375 0-.712.082-1.011.245a1.78 1.78 0 0 0-.699.664 1.868 1.868 0 0 0-.256.983V44h-2.057Zm9.848.17c-.875 0-1.63-.181-2.267-.545a3.698 3.698 0 0 1-1.46-1.557c-.341-.674-.511-1.468-.511-2.38 0-.898.17-1.686.511-2.364a3.87 3.87 0 0 1 1.443-1.591c.618-.383 1.343-.574 2.177-.574a4.41 4.41 0 0 1 1.522.261c.481.17.906.436 1.273.796.371.36.663.818.875 1.375.212.553.318 1.212.318 1.977v.63h-7.153v-1.386h5.182a2.211 2.211 0 0 0-.256-1.05 1.863 1.863 0 0 0-.699-.734 1.963 1.963 0 0 0-1.034-.267c-.421 0-.79.103-1.108.307-.318.2-.566.466-.744.796a2.27 2.27 0 0 0-.267 1.074v1.21c0 .507.092.943.278 1.306.186.36.445.637.778.83.334.19.724.284 1.171.284.299 0 .57-.041.812-.125.243-.087.453-.214.631-.38.178-.167.313-.374.403-.62l1.921.216a2.99 2.99 0 0 1-.693 1.33 3.377 3.377 0 0 1-1.296.875c-.526.204-1.129.306-1.807.306Z"/></svg>